<svg enable-background="new 0 0 34 34" viewBox="0 0 34 34" xmlns="http://www.w3.org/2000/svg"><g id="Layer_1"/><g id="Layer_2"><path d="m21.91016 14.65332c-.25195.2915-.89258.58447-1.75879.58447-.00488 0-.00977 0-.01563 0-.85449-.00293-1.50098-.29102-1.7627-.57568-.37402-.40674-1.00586-.43115-1.41309-.05957-.40625.37354-.43359 1.00635-.05957 1.41309.69922.76074 1.90625 1.21777 3.22852 1.22217h.02344c1.35742 0 2.5791-.47656 3.27148-1.27686.36133-.41748.31445-1.04932-.10254-1.41016-.41796-.36035-1.04784-.3164-1.41112.10254z"/><path d="m17.70703 9.29297c-.39063-.39063-1.02344-.39063-1.41406 0-.71289.71289-1.87305.71289-2.58594 0-.39063-.39063-1.02344-.39063-1.41406 0s-.39063 1.02344 0 1.41406c.74609.74658 1.72656 1.11963 2.70703 1.11963s1.96094-.37305 2.70703-1.11963c.39063-.39062.39063-1.02344 0-1.41406z"/><path d="m24.29297 9.29297c-.71289.71289-1.87305.71289-2.58594 0-.39063-.39063-1.02344-.39063-1.41406 0s-.39063 1.02344 0 1.41406c.74609.74658 1.72656 1.11963 2.70703 1.11963s1.96094-.37305 2.70703-1.11963c.39063-.39063.39063-1.02344 0-1.41406s-1.02344-.39063-1.41406 0z"/><path d="m17 2c-8.27148 0-15 6.729-15 15s6.72852 15 15 15 15-6.729 15-15-6.72852-15-15-15zm0 28c-7.16797 0-13-5.83154-13-13s5.83203-13 13-13 13 5.83154 13 13-5.83203 13-13 13z"/></g></svg>