<svg id="Layer_1" height="512" viewBox="0 0 512 512" width="512" xmlns="http://www.w3.org/2000/svg" data-name="Layer 1"><path d="m34.159 125.348a256.721 256.721 0 0 0 221.757 384.927 258.072 258.072 0 0 0 66.816-8.852 256.623 256.623 0 0 0 189.009-223.14 12 12 0 0 0 -21.735-8.1 186.117 186.117 0 0 1 -103.434 71.909c-99 26.522-201.124-32.435-227.65-131.434a184.919 184.919 0 0 1 56.747-187.688 12 12 0 0 0 -10.333-20.763c-5.42 1.105-10.458 2.286-15.4 3.611a254.861 254.861 0 0 0 -155.777 119.53zm135.527-87.56a209.726 209.726 0 0 0 -33.95 179.083 209.866 209.866 0 0 0 344.164 100.737c-22.3 77.263-84.01 139.363-163.376 160.63a232.541 232.541 0 0 1 -261.577-340.888 230.789 230.789 0 0 1 114.739-99.562z"/></svg>