<?xml version="1.0"?>
<svg xmlns="http://www.w3.org/2000/svg" viewBox="0 0 48 48"><g id="Group"><path d="M45.752,42.473a12.71,12.71,0,0,0-8.444-9.743A7.993,7.993,0,1,0,26.482,21.378c-.5-.217-1-.411-1.514-.577a11,11,0,1,0-9.938,0C7.517,23.226,2,30.987,2,40.18V43a3,3,0,0,0,3,3H42.8a3.018,3.018,0,0,0,2.338-1.1A2.921,2.921,0,0,0,45.752,42.473ZM33,20a6,6,0,1,1-6,6A6.006,6.006,0,0,1,33,20ZM11,11a9,9,0,1,1,9,9A9.01,9.01,0,0,1,11,11ZM5,44a1,1,0,0,1-1-1V40.18C4,30.155,11.178,22,20,22a14.12,14.12,0,0,1,5.536,1.145,7.952,7.952,0,0,0,3.206,9.616A13.238,13.238,0,0,0,20.052,44Zm38.589-.376A1.022,1.022,0,0,1,42.8,44H22.048A11.167,11.167,0,0,1,33,34a10.841,10.841,0,0,1,10.789,8.859A.914.914,0,0,1,43.589,43.624Z"/></g></svg>
