<svg fill="none" height="300" viewBox="0 0 24 24" width="300" xmlns="http://www.w3.org/2000/svg" version="1.1" xmlns:xlink="http://www.w3.org/1999/xlink" xmlns:svgjs="http://svgjs.dev/svgjs"><g width="100%" height="100%" transform="matrix(6.123233995736766e-17,1,-1,6.123233995736766e-17,23.999999523162842,4.76837158203125e-7)"><path clip-rule="evenodd" d="m5.5 7c-.82843 0-1.5.67157-1.5 1.5s.67157 1.5 1.5 1.5 1.5-.67157 1.5-1.5-.67157-1.5-1.5-1.5zm-3.5 1.5c0-1.933 1.567-3.5 3.5-3.5 1.58551 0 2.92479 1.05426 3.35506 2.5h12.14494c.5523 0 1 .44772 1 1s-.4477 1-1 1h-12.14494c-.43027 1.4457-1.76955 2.5-3.35506 2.5-1.933 0-3.5-1.567-3.5-3.5zm16.5 5.5c-.8284 0-1.5.6716-1.5 1.5s.6716 1.5 1.5 1.5 1.5-.6716 1.5-1.5-.6716-1.5-1.5-1.5zm-3.3551.5c.4303-1.4457 1.7696-2.5 3.3551-2.5 1.933 0 3.5 1.567 3.5 3.5s-1.567 3.5-3.5 3.5c-1.5855 0-2.9248-1.0543-3.3551-2.5h-12.1449c-.55228 0-1-.4477-1-1s.44772-1 1-1z" fill="#000000" fill-rule="evenodd" fill-opacity="1" data-original-color="#000000ff" stroke="none" stroke-opacity="1"/></g></svg>