<svg clip-rule="evenodd" fill-rule="evenodd" height="100" image-rendering="optimizeQuality" shape-rendering="geometricPrecision" text-rendering="geometricPrecision" viewBox="0 0 100 100" width="100" xmlns="http://www.w3.org/2000/svg"><g id="Layer_x0020_1"><path d="m45.41 19.9c1.98-4.6 6.84-4.28 9.19-.12l7.16 16.85 18.35 1.71c5.01.46 6.19 5.19 2.96 8.7l-13.81 12.01 4.05 18c1.08 4.86-2.98 7.48-7.36 5.5l-15.69-9.43-15.87 9.41c-4.31 2.56-8.03-.57-7.5-5.3l4.11-17.84-13.98-12.3c-3.61-3.32-1.73-7.73 2.87-8.65l18.22-1.61 7.3-16.93zm4.01 1.72-7.81 18.08c-.3.73-.99 1.28-1.83 1.35l-19.21 1.68c-.94.22-1.42.39-.63 1.13l14.91 13.12c.57.51.86 1.31.68 2.12l-4.33 18.71c-.09 1.01-.06 1.59.97.97l16.99-10.06c.66-.39 1.51-.42 2.22.01l16.45 9.89c.95.41 1.51.58 1.24-.62l-4.33-19.26c-.17-.76.07-1.58.7-2.12l14.52-12.61c.7-.81.94-1.23-.24-1.34l-19.65-1.84c-.77-.07-1.48-.55-1.8-1.32l-7.5-17.67c-.52-.89-.88-1.34-1.35-.22z" fill-rule="nonzero"/></g></svg>