<svg id="Layer_1" enable-background="new 0 0 64 64" height="512" viewBox="0 0 64 64" width="512" xmlns="http://www.w3.org/2000/svg"><g><path d="m32.6 25.2c6.3 0 11.5-5.6 11.5-12.4s-5.2-12.5-11.5-12.5-11.5 5.6-11.5 12.5 5.1 12.4 11.5 12.4zm0-20.5c4.1 0 7.5 3.6 7.5 8.1 0 4.4-3.3 8.1-7.5 8.1-4.1 0-7.5-3.6-7.5-8.1s3.4-8.1 7.5-8.1z"/><path d="m12.1 37.6c-6.3 0-11.5 5.6-11.5 12.4 0 6.9 5.2 12.4 11.5 12.4s11.5-5.6 11.5-12.4-5.2-12.4-11.5-12.4zm0 20.5c-4.1 0-7.5-3.6-7.5-8.1 0-4.4 3.3-8.1 7.5-8.1s7.5 3.6 7.5 8.1c-.1 4.5-3.4 8.1-7.5 8.1z"/><path d="m53.1 37.6c-6.3 0-11.5 5.6-11.5 12.4 0 6.9 5.2 12.4 11.5 12.4s11.5-5.6 11.5-12.4-5.2-12.4-11.5-12.4zm0 20.5c-4.1 0-7.5-3.6-7.5-8.1 0-4.4 3.3-8.1 7.5-8.1s7.5 3.6 7.5 8.1c-.1 4.5-3.4 8.1-7.5 8.1z"/><path d="m37.8 48.8c-3.1 0-6.1 0-9.2 0-.4 0-.9 0-1.3 0-1.2 0-2.3 1.3-2.2 2.7.1 1.5 1 2.7 2.2 2.7h9.2 1.3c1.2 0 2.3-1.3 2.2-2.7 0-1.4-.9-2.7-2.2-2.7z"/><path d="m17.5 37c1.2.8 2.8.9 3.5-.1 1.8-2.5 3.7-4.9 5.5-7.4.3-.3.5-.7.8-1 .7-.9.3-2.6-.9-3.4s-2.8-.9-3.5.1c-1.8 2.5-3.7 4.9-5.5 7.4-.3.3-.5.7-.8 1-.6.9-.3 2.6.9 3.4z"/><path d="m42.2 25.2c-.7-.9-2.4-1-3.6 0-1.1 1-1.6 2.5-.8 3.5 1.9 2.4 3.9 4.9 5.8 7.3.3.3.5.7.8 1 .7.9 2.4 1 3.6 0 1.1-1 1.6-2.5.8-3.5-1.9-2.4-3.9-4.9-5.8-7.3-.3-.3-.5-.6-.8-1z"/></g></svg>